<mxfile host="65bd71144e">
    <diagram id="5H4NplzKR3VxdiJyaBhM" name="第1頁">
        <mxGraphModel dx="721" dy="724" grid="1" gridSize="10" guides="1" tooltips="1" connect="1" arrows="1" fold="1" page="1" pageScale="1" pageWidth="827" pageHeight="1169" math="0" shadow="0">
            <root>
                <mxCell id="0"/>
                <mxCell id="1" parent="0"/>
                <mxCell id="9" value="" style="rounded=0;whiteSpace=wrap;html=1;" parent="1" vertex="1">
                    <mxGeometry x="198" y="10" width="420" height="650" as="geometry"/>
                </mxCell>
                <mxCell id="18" style="edgeStyle=none;html=1;exitX=1;exitY=0.25;exitDx=0;exitDy=0;entryX=-0.002;entryY=0.338;entryDx=0;entryDy=0;entryPerimeter=0;fontColor=#000000;endArrow=none;endFill=0;" edge="1" parent="1" source="2" target="9">
                    <mxGeometry relative="1" as="geometry"/>
                </mxCell>
                <mxCell id="19" style="edgeStyle=none;html=1;exitX=1;exitY=0.75;exitDx=0;exitDy=0;entryX=-0.005;entryY=0.574;entryDx=0;entryDy=0;entryPerimeter=0;fontColor=#000000;endArrow=none;endFill=0;" edge="1" parent="1" source="2" target="9">
                    <mxGeometry relative="1" as="geometry"/>
                </mxCell>
                <mxCell id="20" style="edgeStyle=none;html=1;exitX=0.75;exitY=1;exitDx=0;exitDy=0;entryX=-0.005;entryY=0.62;entryDx=0;entryDy=0;entryPerimeter=0;fontColor=#000000;endArrow=none;endFill=0;" edge="1" parent="1" source="2" target="9">
                    <mxGeometry relative="1" as="geometry"/>
                </mxCell>
                <mxCell id="2" value="住戶" style="rounded=0;whiteSpace=wrap;html=1;" parent="1" vertex="1">
                    <mxGeometry x="24" y="90" width="120" height="60" as="geometry"/>
                </mxCell>
                <mxCell id="21" style="edgeStyle=none;html=1;exitX=1;exitY=0.25;exitDx=0;exitDy=0;entryX=0;entryY=0.5;entryDx=0;entryDy=0;fontColor=#000000;endArrow=none;endFill=0;" edge="1" parent="1" source="3" target="9">
                    <mxGeometry relative="1" as="geometry"/>
                </mxCell>
                <mxCell id="22" style="edgeStyle=none;html=1;exitX=0.75;exitY=1;exitDx=0;exitDy=0;fontColor=#000000;endArrow=none;endFill=0;entryX=-0.005;entryY=0.8;entryDx=0;entryDy=0;entryPerimeter=0;" edge="1" parent="1" source="3" target="9">
                    <mxGeometry relative="1" as="geometry">
                        <mxPoint x="194" y="520" as="targetPoint"/>
                    </mxGeometry>
                </mxCell>
                <mxCell id="3" value="委員" style="rounded=0;whiteSpace=wrap;html=1;" parent="1" vertex="1">
                    <mxGeometry x="24" y="370" width="120" height="60" as="geometry"/>
                </mxCell>
                <mxCell id="6" value="&lt;span style=&quot;background-color: rgb(255, 255, 255);&quot;&gt;&lt;font color=&quot;#000000&quot;&gt;住戶移除綁定手機&lt;/font&gt;&lt;/span&gt;" style="rounded=0;whiteSpace=wrap;html=1;" parent="1" vertex="1">
                    <mxGeometry x="348" y="370" width="120" height="60" as="geometry"/>
                </mxCell>
                <mxCell id="7" value="&lt;span style=&quot;background-color: rgb(255, 255, 255);&quot;&gt;&lt;font color=&quot;#000000&quot;&gt;多戶住戶的綁定操作&lt;/font&gt;&lt;/span&gt;" style="rounded=0;whiteSpace=wrap;html=1;" parent="1" vertex="1">
                    <mxGeometry x="348" y="450" width="120" height="60" as="geometry"/>
                </mxCell>
                <mxCell id="8" value="&lt;font style=&quot;background-color: rgb(255, 255, 255);&quot; color=&quot;#000000&quot;&gt;委員修改公告&lt;/font&gt;" style="rounded=0;whiteSpace=wrap;html=1;" parent="1" vertex="1">
                    <mxGeometry x="348" y="530" width="120" height="60" as="geometry"/>
                </mxCell>
                <mxCell id="15" style="edgeStyle=none;html=1;exitX=0;exitY=0.25;exitDx=0;exitDy=0;fontColor=#000000;endArrow=none;endFill=0;entryX=1;entryY=0.218;entryDx=0;entryDy=0;entryPerimeter=0;" edge="1" parent="1" source="10" target="9">
                    <mxGeometry relative="1" as="geometry">
                        <mxPoint x="624" y="170" as="targetPoint"/>
                    </mxGeometry>
                </mxCell>
                <mxCell id="16" style="edgeStyle=none;html=1;exitX=0;exitY=0.5;exitDx=0;exitDy=0;entryX=1.014;entryY=0.292;entryDx=0;entryDy=0;entryPerimeter=0;fontColor=#000000;endArrow=none;endFill=0;" edge="1" parent="1" source="10" target="9">
                    <mxGeometry relative="1" as="geometry"/>
                </mxCell>
                <mxCell id="17" style="edgeStyle=none;html=1;exitX=0;exitY=0.75;exitDx=0;exitDy=0;entryX=0.998;entryY=0.371;entryDx=0;entryDy=0;entryPerimeter=0;fontColor=#000000;endArrow=none;endFill=0;" edge="1" parent="1" source="10" target="9">
                    <mxGeometry relative="1" as="geometry"/>
                </mxCell>
                <mxCell id="10" value="APP" style="rounded=0;whiteSpace=wrap;html=1;" parent="1" vertex="1">
                    <mxGeometry x="684" y="200" width="120" height="60" as="geometry"/>
                </mxCell>
                <mxCell id="11" value="&lt;font style=&quot;background-color: rgb(255, 255, 255);&quot; color=&quot;#000000&quot;&gt;住戶接收包裹通知&lt;/font&gt;" style="rounded=0;whiteSpace=wrap;html=1;" parent="1" vertex="1">
                    <mxGeometry x="348" y="50" width="120" height="60" as="geometry"/>
                </mxCell>
                <mxCell id="12" value="&lt;span style=&quot;background-color: rgb(255, 255, 255);&quot;&gt;&lt;font color=&quot;#000000&quot;&gt;住戶回應社區公告&lt;/font&gt;&lt;/span&gt;" style="rounded=0;whiteSpace=wrap;html=1;" parent="1" vertex="1">
                    <mxGeometry x="348" y="130" width="120" height="60" as="geometry"/>
                </mxCell>
                <mxCell id="13" value="&lt;span style=&quot;background-color: rgb(255, 255, 255);&quot;&gt;&lt;font color=&quot;#000000&quot;&gt;主任委員發布公告&lt;/font&gt;&lt;/span&gt;" style="rounded=0;whiteSpace=wrap;html=1;" parent="1" vertex="1">
                    <mxGeometry x="348" y="210" width="120" height="60" as="geometry"/>
                </mxCell>
                <mxCell id="14" value="&lt;span style=&quot;background-color: rgb(255, 255, 255);&quot;&gt;&lt;font color=&quot;#000000&quot;&gt;住戶新增第二個綁定手機&lt;/font&gt;&lt;/span&gt;" style="rounded=0;whiteSpace=wrap;html=1;" parent="1" vertex="1">
                    <mxGeometry x="348" y="290" width="120" height="60" as="geometry"/>
                </mxCell>
                <mxCell id="23" value="社區" style="rounded=0;whiteSpace=wrap;html=1;labelBackgroundColor=#FFFFFF;fontColor=#000000;fillColor=default;strokeColor=none;" vertex="1" parent="1">
                    <mxGeometry x="388" y="20" width="40" height="20" as="geometry"/>
                </mxCell>
                <mxCell id="40" style="edgeStyle=none;html=1;exitX=1;exitY=0.5;exitDx=0;exitDy=0;entryX=0;entryY=0.5;entryDx=0;entryDy=0;fontColor=#FFFFFF;endArrow=classic;endFill=1;" edge="1" parent="1" source="25" target="29">
                    <mxGeometry relative="1" as="geometry"/>
                </mxCell>
                <mxCell id="25" value="委員會成員" style="swimlane;whiteSpace=wrap;html=1;labelBackgroundColor=#FFFFFF;fontColor=#000000;fillColor=default;" vertex="1" parent="1">
                    <mxGeometry x="144" y="1169" width="200" height="200" as="geometry"/>
                </mxCell>
                <mxCell id="26" value="&lt;font color=&quot;#ffffff&quot;&gt;有姓名和職位&lt;br&gt;&lt;br&gt;&lt;br&gt;編輯和刪除公告&lt;/font&gt;" style="text;html=1;align=center;verticalAlign=middle;resizable=0;points=[];autosize=1;strokeColor=none;fillColor=none;fontColor=#000000;" vertex="1" parent="25">
                    <mxGeometry x="45" y="65" width="110" height="70" as="geometry"/>
                </mxCell>
                <mxCell id="29" value="公告" style="swimlane;whiteSpace=wrap;html=1;labelBackgroundColor=#FFFFFF;fontColor=#000000;fillColor=default;" vertex="1" parent="1">
                    <mxGeometry x="560" y="1169" width="200" height="200" as="geometry"/>
                </mxCell>
                <mxCell id="30" value="&lt;font color=&quot;#ffffff&quot;&gt;內容和回應列表&lt;br&gt;&lt;br&gt;委員會成員才能&lt;br&gt;創建、編輯和刪除公告&lt;br&gt;&lt;br&gt;&lt;/font&gt;" style="text;html=1;align=center;verticalAlign=middle;resizable=0;points=[];autosize=1;strokeColor=none;fillColor=none;fontColor=#000000;" vertex="1" parent="29">
                    <mxGeometry x="30" y="55" width="140" height="90" as="geometry"/>
                </mxCell>
                <mxCell id="39" style="edgeStyle=none;html=1;exitX=0.25;exitY=0;exitDx=0;exitDy=0;entryX=0;entryY=0.75;entryDx=0;entryDy=0;fontColor=#FFFFFF;endArrow=classic;endFill=1;" edge="1" parent="1" source="31" target="25">
                    <mxGeometry relative="1" as="geometry"/>
                </mxCell>
                <mxCell id="41" style="edgeStyle=none;html=1;exitX=1;exitY=0.25;exitDx=0;exitDy=0;entryX=0;entryY=0.75;entryDx=0;entryDy=0;fontColor=#FFFFFF;endArrow=classic;endFill=1;" edge="1" parent="1" source="31" target="29">
                    <mxGeometry relative="1" as="geometry"/>
                </mxCell>
                <mxCell id="42" style="edgeStyle=none;html=1;exitX=1;exitY=0.75;exitDx=0;exitDy=0;entryX=0.5;entryY=0;entryDx=0;entryDy=0;fontColor=#FFFFFF;endArrow=classic;endFill=1;" edge="1" parent="1" source="31" target="35">
                    <mxGeometry relative="1" as="geometry"/>
                </mxCell>
                <mxCell id="43" style="edgeStyle=none;html=1;exitX=1;exitY=0.5;exitDx=0;exitDy=0;entryX=0.5;entryY=0;entryDx=0;entryDy=0;fontColor=#FFFFFF;endArrow=classic;endFill=1;" edge="1" parent="1" source="31" target="37">
                    <mxGeometry relative="1" as="geometry"/>
                </mxCell>
                <mxCell id="31" value="社區" style="swimlane;whiteSpace=wrap;html=1;labelBackgroundColor=#FFFFFF;fontColor=#000000;fillColor=default;" vertex="1" parent="1">
                    <mxGeometry x="10" y="1480" width="200" height="200" as="geometry"/>
                </mxCell>
                <mxCell id="32" value="&lt;font color=&quot;#ffffff&quot;&gt;居民和公告可以接收包裹&lt;br&gt;查看、回應公告&lt;/font&gt;" style="text;html=1;align=center;verticalAlign=middle;resizable=0;points=[];autosize=1;strokeColor=none;fillColor=none;fontColor=#000000;" vertex="1" parent="31">
                    <mxGeometry x="20" y="80" width="160" height="40" as="geometry"/>
                </mxCell>
                <mxCell id="44" style="edgeStyle=none;html=1;exitX=1;exitY=0.5;exitDx=0;exitDy=0;entryX=0;entryY=0.5;entryDx=0;entryDy=0;fontColor=#FFFFFF;endArrow=classic;endFill=1;" edge="1" parent="1" source="35" target="37">
                    <mxGeometry relative="1" as="geometry"/>
                </mxCell>
                <mxCell id="35" value="居民" style="swimlane;whiteSpace=wrap;html=1;labelBackgroundColor=#FFFFFF;fontColor=#000000;fillColor=default;" vertex="1" parent="1">
                    <mxGeometry x="198" y="1810" width="200" height="200" as="geometry"/>
                </mxCell>
                <mxCell id="36" value="&lt;font color=&quot;#ffffff&quot;&gt;姓名&lt;br&gt;&lt;br&gt;綁定的手機應用列表&lt;/font&gt;" style="text;html=1;align=center;verticalAlign=middle;resizable=0;points=[];autosize=1;strokeColor=none;fillColor=none;fontColor=#000000;" vertex="1" parent="35">
                    <mxGeometry x="35" y="70" width="130" height="60" as="geometry"/>
                </mxCell>
                <mxCell id="37" value="手機應用" style="swimlane;whiteSpace=wrap;html=1;labelBackgroundColor=#FFFFFF;fontColor=#000000;fillColor=default;" vertex="1" parent="1">
                    <mxGeometry x="604" y="1810" width="200" height="200" as="geometry"/>
                </mxCell>
                <mxCell id="38" value="&lt;font color=&quot;#ffffff&quot;&gt;居民手機上的應用程序&lt;br&gt;&lt;br&gt;與特定居民關聯&lt;/font&gt;" style="text;html=1;align=center;verticalAlign=middle;resizable=0;points=[];autosize=1;strokeColor=none;fillColor=none;fontColor=#000000;" vertex="1" parent="37">
                    <mxGeometry x="30" y="70" width="140" height="60" as="geometry"/>
                </mxCell>
                <mxCell id="70" style="edgeStyle=none;html=1;exitX=0.5;exitY=1;exitDx=0;exitDy=0;entryX=0.5;entryY=0;entryDx=0;entryDy=0;fontSize=12;fontColor=#000000;endArrow=none;endFill=0;dashed=1;" edge="1" parent="1" source="46" target="50">
                    <mxGeometry relative="1" as="geometry"/>
                </mxCell>
                <mxCell id="46" value="&lt;font style=&quot;background-color: rgb(0, 0, 0);&quot;&gt;信件/包裹簽收流程&lt;/font&gt;" style="rounded=0;whiteSpace=wrap;html=1;labelBackgroundColor=#FFFFFF;fontColor=#FFFFFF;fillColor=default;" vertex="1" parent="1">
                    <mxGeometry x="10" y="2390" width="120" height="60" as="geometry"/>
                </mxCell>
                <mxCell id="71" style="edgeStyle=none;html=1;exitX=0.25;exitY=1;exitDx=0;exitDy=0;entryX=0.5;entryY=0;entryDx=0;entryDy=0;dashed=1;fontSize=12;fontColor=#000000;endArrow=none;endFill=0;" edge="1" parent="1" source="47" target="52">
                    <mxGeometry relative="1" as="geometry"/>
                </mxCell>
                <mxCell id="47" value="&lt;span style=&quot;background-color: rgb(0, 0, 0);&quot;&gt;住戶確認身分及綁定手機流程&lt;/span&gt;" style="rounded=0;whiteSpace=wrap;html=1;labelBackgroundColor=#FFFFFF;fontColor=#FFFFFF;fillColor=default;strokeColor=default;" vertex="1" parent="1">
                    <mxGeometry x="170" y="2390" width="162" height="70" as="geometry"/>
                </mxCell>
                <mxCell id="72" style="edgeStyle=none;html=1;exitX=0.5;exitY=1;exitDx=0;exitDy=0;entryX=0.5;entryY=0;entryDx=0;entryDy=0;dashed=1;fontSize=12;fontColor=#000000;endArrow=none;endFill=0;" edge="1" parent="1" source="48" target="51">
                    <mxGeometry relative="1" as="geometry"/>
                </mxCell>
                <mxCell id="48" value="&lt;span style=&quot;background-color: rgb(0, 0, 0);&quot;&gt;公告發布流程&lt;/span&gt;" style="rounded=0;whiteSpace=wrap;html=1;labelBackgroundColor=#FFFFFF;fontColor=#FFFFFF;fillColor=default;" vertex="1" parent="1">
                    <mxGeometry x="388" y="2390" width="120" height="60" as="geometry"/>
                </mxCell>
                <mxCell id="73" style="edgeStyle=none;html=1;exitX=0.5;exitY=1;exitDx=0;exitDy=0;entryX=0.5;entryY=0;entryDx=0;entryDy=0;dashed=1;fontSize=12;fontColor=#000000;endArrow=none;endFill=0;" edge="1" parent="1" source="49" target="53">
                    <mxGeometry relative="1" as="geometry"/>
                </mxCell>
                <mxCell id="49" value="&lt;span style=&quot;background-color: rgb(0, 0, 0);&quot;&gt;公告回應流程&lt;/span&gt;" style="rounded=0;whiteSpace=wrap;html=1;labelBackgroundColor=#FFFFFF;fontColor=#FFFFFF;fillColor=default;" vertex="1" parent="1">
                    <mxGeometry x="550" y="2390" width="120" height="60" as="geometry"/>
                </mxCell>
                <mxCell id="75" style="edgeStyle=none;html=1;exitX=0.5;exitY=1;exitDx=0;exitDy=0;dashed=1;fontSize=12;fontColor=#000000;endArrow=none;endFill=0;" edge="1" parent="1" source="50">
                    <mxGeometry relative="1" as="geometry">
                        <mxPoint x="69.58823529411768" y="3030" as="targetPoint"/>
                    </mxGeometry>
                </mxCell>
                <mxCell id="50" value="" style="rounded=0;whiteSpace=wrap;html=1;labelBackgroundColor=#FFFFFF;fontColor=#FFFFFF;fillColor=default;" vertex="1" parent="1">
                    <mxGeometry x="50" y="2610" width="40" height="350" as="geometry"/>
                </mxCell>
                <mxCell id="64" style="edgeStyle=none;html=1;exitX=1;exitY=0.25;exitDx=0;exitDy=0;entryX=0;entryY=0.25;entryDx=0;entryDy=0;fontColor=#000000;endArrow=classic;endFill=1;" edge="1" parent="1" source="52" target="51">
                    <mxGeometry relative="1" as="geometry"/>
                </mxCell>
                <mxCell id="76" style="edgeStyle=none;html=1;exitX=0.5;exitY=1;exitDx=0;exitDy=0;dashed=1;fontSize=12;fontColor=#000000;endArrow=none;endFill=0;" edge="1" parent="1" source="52">
                    <mxGeometry relative="1" as="geometry">
                        <mxPoint x="209.58823529411768" y="3140" as="targetPoint"/>
                    </mxGeometry>
                </mxCell>
                <mxCell id="52" value="" style="rounded=0;whiteSpace=wrap;html=1;labelBackgroundColor=#FFFFFF;fontColor=#FFFFFF;fillColor=default;" vertex="1" parent="1">
                    <mxGeometry x="189" y="2570" width="40" height="480" as="geometry"/>
                </mxCell>
                <mxCell id="66" style="edgeStyle=none;html=1;exitX=1;exitY=0.5;exitDx=0;exitDy=0;entryX=0;entryY=0.5;entryDx=0;entryDy=0;fontColor=#000000;endArrow=classic;endFill=1;" edge="1" parent="1" source="53" target="62">
                    <mxGeometry relative="1" as="geometry"/>
                </mxCell>
                <mxCell id="78" style="edgeStyle=none;html=1;exitX=0.5;exitY=1;exitDx=0;exitDy=0;dashed=1;fontSize=12;fontColor=#000000;endArrow=none;endFill=0;" edge="1" parent="1" source="53">
                    <mxGeometry relative="1" as="geometry">
                        <mxPoint x="609.5882352941178" y="3150" as="targetPoint"/>
                    </mxGeometry>
                </mxCell>
                <mxCell id="53" value="" style="rounded=0;whiteSpace=wrap;html=1;labelBackgroundColor=#FFFFFF;fontColor=#FFFFFF;fillColor=default;" vertex="1" parent="1">
                    <mxGeometry x="590" y="2575" width="40" height="480" as="geometry"/>
                </mxCell>
                <mxCell id="55" value="貨運公司送達包裹，&lt;br&gt;警衛簽收並通知住戶的過程" style="text;html=1;align=center;verticalAlign=middle;resizable=0;points=[];autosize=1;strokeColor=none;fillColor=none;fontColor=#FFFFFF;" vertex="1" parent="1">
                    <mxGeometry y="2550" width="170" height="40" as="geometry"/>
                </mxCell>
                <mxCell id="57" value="" style="edgeStyle=none;orthogonalLoop=1;jettySize=auto;html=1;fontColor=#FFFFFF;endArrow=classic;endFill=1;entryX=0.017;entryY=0.146;entryDx=0;entryDy=0;entryPerimeter=0;" edge="1" parent="1" target="52">
                    <mxGeometry width="80" relative="1" as="geometry">
                        <mxPoint x="90" y="2640" as="sourcePoint"/>
                        <mxPoint x="220" y="2640" as="targetPoint"/>
                        <Array as="points"/>
                    </mxGeometry>
                </mxCell>
                <mxCell id="58" value="&lt;font style=&quot;font-size: 12px;&quot;&gt;住戶在與警衛確認身分後，綁定手機到APP的過程&lt;/font&gt;" style="text;html=1;align=center;verticalAlign=middle;resizable=0;points=[];autosize=1;strokeColor=none;fillColor=none;fontColor=#FFFFFF;" vertex="1" parent="1">
                    <mxGeometry x="153" y="2530" width="290" height="30" as="geometry"/>
                </mxCell>
                <mxCell id="59" value="主任委員或各類主委發布公告的過程" style="text;html=1;align=center;verticalAlign=middle;resizable=0;points=[];autosize=1;strokeColor=none;fillColor=none;fontColor=#FFFFFF;" vertex="1" parent="1">
                    <mxGeometry x="443" y="2530" width="220" height="30" as="geometry"/>
                </mxCell>
                <mxCell id="60" value="貨運公司送達包裹，&lt;br&gt;警衛簽收並通知住戶的過程" style="text;html=1;align=center;verticalAlign=middle;resizable=0;points=[];autosize=1;strokeColor=none;fillColor=none;fontColor=#FFFFFF;" vertex="1" parent="1">
                    <mxGeometry x="650" y="2520" width="170" height="40" as="geometry"/>
                </mxCell>
                <mxCell id="74" style="edgeStyle=none;html=1;exitX=0.5;exitY=1;exitDx=0;exitDy=0;entryX=0.25;entryY=0;entryDx=0;entryDy=0;dashed=1;fontSize=12;fontColor=#000000;endArrow=none;endFill=0;" edge="1" parent="1" source="61" target="62">
                    <mxGeometry relative="1" as="geometry"/>
                </mxCell>
                <mxCell id="61" value="&lt;span style=&quot;background-color: rgb(0, 0, 0);&quot;&gt;公告修改或刪除流程&lt;/span&gt;" style="rounded=0;whiteSpace=wrap;html=1;labelBackgroundColor=#FFFFFF;fontColor=#FFFFFF;fillColor=default;" vertex="1" parent="1">
                    <mxGeometry x="690" y="2390" width="120" height="60" as="geometry"/>
                </mxCell>
                <mxCell id="79" style="edgeStyle=none;html=1;exitX=0.5;exitY=1;exitDx=0;exitDy=0;dashed=1;fontSize=12;fontColor=#000000;endArrow=none;endFill=0;" edge="1" parent="1" source="62">
                    <mxGeometry relative="1" as="geometry">
                        <mxPoint x="760.1764705882354" y="3140" as="targetPoint"/>
                    </mxGeometry>
                </mxCell>
                <mxCell id="80" style="edgeStyle=none;html=1;exitX=1;exitY=0.75;exitDx=0;exitDy=0;fontSize=12;fontColor=#000000;endArrow=classicThin;endFill=1;" edge="1" parent="1" source="62">
                    <mxGeometry relative="1" as="geometry">
                        <mxPoint x="810" y="2935" as="targetPoint"/>
                    </mxGeometry>
                </mxCell>
                <mxCell id="62" value="" style="rounded=0;whiteSpace=wrap;html=1;labelBackgroundColor=#FFFFFF;fontColor=#FFFFFF;fillColor=default;" vertex="1" parent="1">
                    <mxGeometry x="740" y="2575" width="40" height="480" as="geometry"/>
                </mxCell>
                <mxCell id="77" style="edgeStyle=none;html=1;exitX=0.5;exitY=1;exitDx=0;exitDy=0;dashed=1;fontSize=12;fontColor=#000000;endArrow=none;endFill=0;" edge="1" parent="1" source="51">
                    <mxGeometry relative="1" as="geometry">
                        <mxPoint x="448.41176470588243" y="3150" as="targetPoint"/>
                    </mxGeometry>
                </mxCell>
                <mxCell id="51" value="" style="rounded=0;whiteSpace=wrap;html=1;labelBackgroundColor=#FFFFFF;fontColor=#FFFFFF;fillColor=default;" vertex="1" parent="1">
                    <mxGeometry x="428" y="2570" width="40" height="480" as="geometry"/>
                </mxCell>
                <mxCell id="69" value="" style="edgeStyle=none;orthogonalLoop=1;jettySize=auto;html=1;fontColor=#000000;endArrow=classic;endFill=1;entryX=-0.05;entryY=0.406;entryDx=0;entryDy=0;entryPerimeter=0;" edge="1" parent="1" target="53">
                    <mxGeometry width="80" relative="1" as="geometry">
                        <mxPoint x="468" y="2770" as="sourcePoint"/>
                        <mxPoint x="548" y="2770" as="targetPoint"/>
                        <Array as="points"/>
                    </mxGeometry>
                </mxCell>
            </root>
        </mxGraphModel>
    </diagram>
</mxfile>